<?xml version="1.0" encoding="UTF-8"?>
<!DOCTYPE svg PUBLIC "-//W3C//DTD SVG 1.1//EN" "http://www.w3.org/Graphics/SVG/1.1/DTD/svg11.dtd">
<!-- Creator: CorelDRAW 2020 (64-Bit Evaluation Version) -->
<svg xmlns="http://www.w3.org/2000/svg" xml:space="preserve" width="53.6022mm" height="17.4836mm" version="1.1" style="shape-rendering:geometricPrecision; text-rendering:geometricPrecision; image-rendering:optimizeQuality; fill-rule:evenodd; clip-rule:evenodd"
viewBox="0 0 17652.53 5757.78"
 xmlns:xlink="http://www.w3.org/1999/xlink"
 xmlns:xodm="http://www.corel.com/coreldraw/odm/2003">
 <defs>
  <style type="text/css">
   <![CDATA[
    .fil0 {fill:none}
    .fil2 {fill:#0099DD}
    .fil3 {fill:#FEFEFE;fill-rule:nonzero}
    .fil4 {fill:#2B2A29;fill-rule:nonzero}
    .fil1 {fill:#0099DD;fill-rule:nonzero}
   ]]>
  </style>
 </defs>
 <g id="Layer_x0020_1">
  <metadata id="CorelCorpID_0Corel-Layer"/>
  <rect class="fil0" x="0.01" y="-0.01" width="17652.51" height="5757.8"/>
  <g id="_2992432243088">
   <path class="fil1" d="M8695.49 4084.58c-47.09,0 -88.32,8.89 -123.66,26.71 -35.34,17.82 -64.65,41.49 -87.96,71.07 -23.28,29.57 -40.84,63.72 -52.59,102.49 -11.79,38.73 -17.68,78.77 -17.68,120.14 0,41.89 5.89,82.07 17.68,120.53 11.76,38.5 29.31,72.52 52.59,102.09 23.32,29.57 52.63,53.28 87.96,71.07 35.34,17.82 76.57,26.71 123.66,26.71 39.29,0 73.57,-6.29 102.88,-18.87 29.31,-12.55 53.78,-27.47 73.41,-44.76 19.63,-17.26 34.45,-35.07 44.36,-53.38 9.98,-18.34 14.95,-33.23 14.95,-44.76 0,-8.4 -1.98,-16.24 -5.89,-23.58 -3.95,-7.31 -9.06,-13.6 -15.35,-18.84 -6.26,-5.24 -13.21,-9.42 -20.78,-12.55 -7.61,-3.16 -15.05,-4.74 -22.39,-4.74 -7.31,0 -14.13,1.84 -20.42,5.5 -6.26,3.69 -11.26,9.16 -14.92,16.5 -4.18,8.89 -9.29,18.87 -15.31,29.84 -5.99,11 -14.13,21.47 -24.34,31.42 -10.18,9.95 -23.05,18.34 -38.47,25.13 -15.45,6.82 -34.71,10.21 -57.73,10.21 -26.15,0 -49.33,-6.42 -69.49,-19.23 -20.15,-12.81 -37.18,-29.44 -51.05,-49.89 -13.86,-20.39 -24.34,-43.57 -31.42,-69.45 -7.05,-25.92 -10.6,-52.23 -10.6,-78.94 0,-26.15 3.56,-52.2 10.6,-78.12 7.08,-25.92 17.55,-49.1 31.42,-69.52 13.86,-20.39 30.89,-37.02 51.05,-49.86 20.15,-12.81 43.34,-19.23 69.49,-19.23 23.02,0 42.29,3.39 57.73,10.21 15.41,6.82 28.29,15.05 38.47,24.73 10.21,9.68 18.34,20.15 24.34,31.42 6.03,11.23 11.13,21.08 15.31,29.44 3.66,7.34 8.66,12.81 14.92,16.5 6.29,3.66 13.37,5.5 21.21,5.5 7.34,0 14.82,-1.58 22.39,-4.74 7.61,-3.13 14.52,-7.31 20.81,-12.55 6.26,-5.24 11.36,-11.53 15.31,-18.84 3.92,-7.34 5.86,-15.18 5.86,-23.55 0,-11.03 -4.97,-25.69 -14.92,-44 -9.91,-18.34 -24.86,-36.13 -44.76,-53.38 -19.89,-17.29 -44.49,-32.34 -73.8,-45.15 -29.31,-12.84 -63.59,-19.27 -102.88,-19.27zm554.42 641.56c46.07,0 86.65,-8.89 121.69,-26.68 35.11,-17.78 64.42,-41.63 87.96,-71.46 23.55,-29.84 41.36,-63.99 53.38,-102.49 12.05,-38.47 18.08,-78.64 18.08,-120.53 0,-41.36 -6.03,-81.28 -18.08,-119.74 -12.02,-38.5 -29.84,-72.65 -53.38,-102.49 -23.55,-29.84 -52.86,-53.65 -87.96,-71.46 -35.04,-17.82 -75.61,-26.71 -121.69,-26.71 -46.6,0 -87.44,8.89 -122.51,26.71 -35.07,17.82 -64.38,41.63 -87.93,71.46 -23.58,29.84 -41.23,63.99 -53.02,102.49 -11.79,38.47 -17.68,78.38 -17.68,119.74 0,41.89 5.89,82.07 17.68,120.53 11.79,38.5 29.44,72.65 53.02,102.49 23.55,29.84 52.86,53.68 87.93,71.46 35.07,17.78 75.91,26.68 122.51,26.68zm167.26 -321.16c0,26.71 -3.16,53.02 -9.45,78.94 -6.29,25.88 -16.2,49.17 -29.84,69.88 -13.6,20.68 -30.89,37.28 -51.84,49.86 -20.91,12.55 -46.3,18.84 -76.14,18.84 -29.84,0 -55.36,-6.29 -76.57,-18.84 -21.21,-12.58 -38.63,-29.18 -52.23,-49.86 -13.6,-20.71 -23.55,-44 -29.84,-69.88 -6.26,-25.92 -9.42,-52.23 -9.42,-78.94 0,-26.71 3.16,-53.02 9.42,-78.91 6.29,-25.92 16.24,-49.1 29.84,-69.49 13.6,-20.42 31.02,-36.92 52.23,-49.46 21.21,-12.58 46.73,-18.87 76.57,-18.87 29.84,0 55.23,6.29 76.14,18.87 20.95,12.55 38.23,29.05 51.84,49.46 13.63,20.39 23.55,43.57 29.84,69.49 6.29,25.88 9.45,52.2 9.45,78.91zm426.38 321.16c46.07,0 86.65,-8.89 121.72,-26.68 35.07,-17.78 64.38,-41.63 87.93,-71.46 23.58,-29.84 41.36,-63.99 53.42,-102.49 12.05,-38.47 18.05,-78.64 18.05,-120.53 0,-41.36 -5.99,-81.28 -18.05,-119.74 -12.05,-38.5 -29.84,-72.65 -53.42,-102.49 -23.55,-29.84 -52.86,-53.65 -87.93,-71.46 -35.07,-17.82 -75.65,-26.71 -121.72,-26.71 -46.6,0 -87.44,8.89 -122.51,26.71 -35.07,17.82 -64.38,41.63 -87.93,71.46 -23.58,29.84 -41.23,63.99 -53.02,102.49 -11.76,38.47 -17.68,78.38 -17.68,119.74 0,41.89 5.93,82.07 17.68,120.53 11.79,38.5 29.44,72.65 53.02,102.49 23.55,29.84 52.86,53.68 87.93,71.46 35.07,17.78 75.91,26.68 122.51,26.68zm167.26 -321.16c0,26.71 -3.16,53.02 -9.42,78.94 -6.29,25.88 -16.24,49.17 -29.87,69.88 -13.6,20.68 -30.86,37.28 -51.8,49.86 -20.95,12.55 -46.34,18.84 -76.17,18.84 -29.84,0 -55.36,-6.29 -76.57,-18.84 -21.21,-12.58 -38.6,-29.18 -52.23,-49.86 -13.6,-20.71 -23.55,-44 -29.84,-69.88 -6.26,-25.92 -9.42,-52.23 -9.42,-78.94 0,-26.71 3.16,-53.02 9.42,-78.91 6.29,-25.92 16.24,-49.1 29.84,-69.49 13.63,-20.42 31.02,-36.92 52.23,-49.46 21.21,-12.58 46.73,-18.87 76.57,-18.87 29.84,0 55.23,6.29 76.17,18.87 20.95,12.55 38.2,29.05 51.8,49.46 13.63,20.39 23.58,43.57 29.87,69.49 6.26,25.88 9.42,52.2 9.42,78.91zm285.82 -249.69c0,-16.76 -5.89,-30.89 -17.65,-42.42 -11.79,-11.53 -26.05,-17.26 -42.81,-17.26 -16.73,0 -30.89,5.73 -42.42,17.26 -11.49,11.53 -17.26,25.65 -17.26,42.42l0 497.84c0,11 1.84,20.42 5.5,28.26 3.66,7.87 8.5,14.29 14.52,19.27 6.03,4.97 12.71,8.63 20.02,10.97 7.34,2.37 14.65,3.56 22,3.56l311.74 0c14.65,0 26.97,-4.97 36.88,-14.92 9.98,-9.98 14.95,-22.26 14.95,-36.92 0,-14.13 -4.97,-26.18 -14.95,-36.13 -9.91,-9.95 -22.23,-14.92 -36.88,-14.92l-253.65 0 0 -457zm783.69 60.43l63.59 216.73 -128.01 0 64.42 -216.73zm135.85 458.62c4.18,12.55 11.66,22.53 22.39,29.84 10.7,7.34 22.36,11 34.94,11 10.44,0 19.33,-1.98 26.68,-5.89 7.34,-3.95 13.37,-8.76 18.08,-14.52 4.71,-5.76 8.23,-12.32 10.6,-19.63 2.34,-7.34 3.52,-14.16 3.52,-20.45 0,-6.78 -1.28,-14.1 -3.92,-21.97l-162.55 -469.58c-3.66,-10.47 -8.13,-20.55 -13.34,-30.23 -5.24,-9.68 -11.39,-18.08 -18.44,-25.13 -7.08,-7.05 -15.08,-12.68 -23.97,-16.89 -8.89,-4.18 -18.84,-6.29 -29.84,-6.29 -11.53,0 -21.74,2.11 -30.63,6.29 -8.92,4.22 -16.76,9.85 -23.58,16.89 -6.78,7.05 -12.81,15.45 -18.05,25.13 -5.24,9.68 -9.68,19.76 -13.34,30.23l-163.35 469.58c-2.6,7.87 -3.92,15.18 -3.92,21.97 0,15.74 5.37,29.74 16.1,42.02 10.74,12.32 25.26,18.48 43.57,18.48 12.58,0 24.21,-3.66 34.94,-11 10.74,-7.31 18.21,-17.29 22.36,-29.84l44.79 -150.01 182.18 0 44.76 150.01zm281.9 -519.05c0,-16.76 -5.86,-30.89 -17.65,-42.42 -11.76,-11.53 -26.05,-17.26 -42.78,-17.26 -16.76,0 -30.89,5.73 -42.42,17.26 -11.53,11.53 -17.29,25.65 -17.29,42.42l0 500.18c0,16.76 5.76,30.89 17.29,42.42 11.53,11.53 25.65,17.29 42.42,17.29 16.73,0 31.02,-5.76 42.78,-17.29 11.79,-11.53 17.65,-25.65 17.65,-42.42l0 -500.18zm346.32 43.17c11.53,0 22.49,2.24 32.97,6.69 10.47,4.45 19.66,10.57 27.5,18.44 7.87,7.84 14,17.03 18.44,27.47 4.45,10.51 6.69,21.47 6.69,33 0,12.02 -2.24,23.28 -6.69,33.76 -4.45,10.47 -10.57,19.63 -18.44,27.5 -7.84,7.84 -17.03,14 -27.5,18.44 -10.47,4.45 -21.44,6.69 -32.97,6.69l-153.93 0 0 -171.97 153.93 0zm205.73 58.88c0,-22.49 -4.31,-43.57 -12.94,-63.2 -8.66,-19.66 -20.29,-36.79 -34.94,-51.44 -14.65,-14.65 -31.94,-26.18 -51.84,-34.55 -19.89,-8.4 -40.84,-12.55 -62.84,-12.55l-255.19 0c-12.58,0 -22.92,2.21 -31.02,6.65 -8.13,4.45 -14.52,9.95 -19.23,16.5 -4.74,6.52 -7.87,13.34 -9.42,20.42 -1.58,7.05 -2.37,12.94 -2.37,17.65l0 498.63c0,16.76 5.76,30.89 17.29,42.42 11.53,11.53 25.65,17.29 42.38,17.29 16.76,0 31.02,-5.76 42.81,-17.29 11.79,-11.53 17.65,-25.65 17.65,-42.42l0 -192.36 113.09 0c18.84,0 34.81,1.84 47.88,5.47 13.11,3.69 23.84,8.53 32.21,14.52 8.36,6.06 14.52,12.45 18.44,19.27 3.92,6.78 6.42,13.34 7.48,19.63l17.26 144.47c1.58,14.65 7.87,26.44 18.87,35.37 10.97,8.89 24.07,13.34 39.26,13.34 7.31,0 14.79,-1.19 22.39,-3.56 7.57,-2.34 14.39,-5.86 20.39,-10.6 6.06,-4.71 10.74,-10.44 14.16,-17.26 3.39,-6.82 4.58,-14.65 3.52,-23.55l-18.05 -164.14c-1.05,-10.47 -4.22,-20.02 -9.42,-28.65 -5.24,-8.66 -11.53,-16.24 -18.87,-22.76 -7.31,-6.59 -15.58,-11.92 -24.73,-16.14 -9.16,-4.18 -18.44,-7.05 -27.86,-8.63 -6.29,-1.58 -9.45,-3.92 -9.45,-7.08 0,-2.07 2.9,-4.15 8.66,-6.26 34.55,-11.53 60.6,-30.36 78.12,-56.55 17.55,-26.18 26.31,-57.07 26.31,-92.67zm525.34 -172.76c-47.09,0 -88.32,8.89 -123.66,26.71 -35.34,17.82 -64.65,41.49 -87.96,71.07 -23.28,29.57 -40.84,63.72 -52.59,102.49 -11.79,38.73 -17.68,78.77 -17.68,120.14 0,41.89 5.89,82.07 17.68,120.53 11.76,38.5 29.31,72.52 52.59,102.09 23.32,29.57 52.63,53.28 87.96,71.07 35.34,17.82 76.57,26.71 123.66,26.71 39.29,0 73.57,-6.29 102.88,-18.87 29.31,-12.55 53.78,-27.47 73.41,-44.76 19.63,-17.26 34.45,-35.07 44.36,-53.38 9.98,-18.34 14.95,-33.23 14.95,-44.76 0,-8.4 -1.98,-16.24 -5.89,-23.58 -3.95,-7.31 -9.06,-13.6 -15.35,-18.84 -6.26,-5.24 -13.21,-9.42 -20.78,-12.55 -7.61,-3.16 -15.05,-4.74 -22.39,-4.74 -7.31,0 -14.13,1.84 -20.42,5.5 -6.26,3.69 -11.26,9.16 -14.92,16.5 -4.18,8.89 -9.29,18.87 -15.31,29.84 -5.99,11 -14.13,21.47 -24.34,31.42 -10.21,9.95 -23.05,18.34 -38.47,25.13 -15.45,6.82 -34.71,10.21 -57.73,10.21 -26.15,0 -49.33,-6.42 -69.49,-19.23 -20.15,-12.81 -37.18,-29.44 -51.05,-49.89 -13.86,-20.39 -24.34,-43.57 -31.42,-69.45 -7.05,-25.92 -10.6,-52.23 -10.6,-78.94 0,-26.15 3.56,-52.2 10.6,-78.12 7.08,-25.92 17.55,-49.1 31.42,-69.52 13.86,-20.39 30.89,-37.02 51.05,-49.86 20.15,-12.81 43.34,-19.23 69.49,-19.23 23.02,0 42.29,3.39 57.73,10.21 15.41,6.82 28.26,15.05 38.47,24.73 10.21,9.68 18.34,20.15 24.34,31.42 6.03,11.23 11.13,21.08 15.31,29.44 3.66,7.34 8.66,12.81 14.92,16.5 6.29,3.66 13.37,5.5 21.21,5.5 7.34,0 14.82,-1.58 22.39,-4.74 7.61,-3.13 14.52,-7.31 20.81,-12.55 6.26,-5.24 11.36,-11.53 15.31,-18.84 3.92,-7.34 5.86,-15.18 5.86,-23.55 0,-11.03 -4.97,-25.69 -14.92,-44 -9.91,-18.34 -24.86,-36.13 -44.76,-53.38 -19.89,-17.29 -44.49,-32.34 -73.8,-45.15 -29.31,-12.84 -63.59,-19.27 -102.88,-19.27zm554.42 641.56c46.07,0 86.65,-8.89 121.69,-26.68 35.11,-17.78 64.42,-41.63 87.96,-71.46 23.55,-29.84 41.36,-63.99 53.38,-102.49 12.05,-38.47 18.08,-78.64 18.08,-120.53 0,-41.36 -6.03,-81.28 -18.08,-119.74 -12.02,-38.5 -29.84,-72.65 -53.38,-102.49 -23.55,-29.84 -52.86,-53.65 -87.96,-71.46 -35.04,-17.82 -75.61,-26.71 -121.69,-26.71 -46.6,0 -87.44,8.89 -122.51,26.71 -35.07,17.82 -64.38,41.63 -87.93,71.46 -23.58,29.84 -41.23,63.99 -53.02,102.49 -11.79,38.47 -17.68,78.38 -17.68,119.74 0,41.89 5.89,82.07 17.68,120.53 11.79,38.5 29.44,72.65 53.02,102.49 23.55,29.84 52.86,53.68 87.93,71.46 35.07,17.78 75.91,26.68 122.51,26.68zm167.26 -321.16c0,26.71 -3.16,53.02 -9.45,78.94 -6.29,25.88 -16.2,49.17 -29.84,69.88 -13.6,20.68 -30.89,37.28 -51.84,49.86 -20.91,12.55 -46.3,18.84 -76.14,18.84 -29.84,0 -55.36,-6.29 -76.57,-18.84 -21.21,-12.58 -38.63,-29.18 -52.23,-49.86 -13.6,-20.71 -23.55,-44 -29.84,-69.88 -6.26,-25.92 -9.42,-52.23 -9.42,-78.94 0,-26.71 3.16,-53.02 9.42,-78.91 6.29,-25.92 16.24,-49.1 29.84,-69.49 13.6,-20.42 31.02,-36.92 52.23,-49.46 21.21,-12.58 46.73,-18.87 76.57,-18.87 29.84,0 55.23,6.29 76.14,18.87 20.95,12.55 38.23,29.05 51.84,49.46 13.63,20.39 23.55,43.57 29.84,69.49 6.29,25.88 9.45,52.2 9.45,78.91zm426.38 321.16c46.07,0 86.65,-8.89 121.72,-26.68 35.07,-17.78 64.38,-41.63 87.93,-71.46 23.58,-29.84 41.36,-63.99 53.42,-102.49 12.05,-38.47 18.05,-78.64 18.05,-120.53 0,-41.36 -5.99,-81.28 -18.05,-119.74 -12.05,-38.5 -29.84,-72.65 -53.42,-102.49 -23.55,-29.84 -52.86,-53.65 -87.93,-71.46 -35.07,-17.82 -75.65,-26.71 -121.72,-26.71 -46.6,0 -87.44,8.89 -122.51,26.71 -35.07,17.82 -64.38,41.63 -87.93,71.46 -23.58,29.84 -41.23,63.99 -53.02,102.49 -11.76,38.47 -17.68,78.38 -17.68,119.74 0,41.89 5.93,82.07 17.68,120.53 11.79,38.5 29.44,72.65 53.02,102.49 23.55,29.84 52.86,53.68 87.93,71.46 35.07,17.78 75.91,26.68 122.51,26.68zm167.26 -321.16c0,26.71 -3.16,53.02 -9.45,78.94 -6.26,25.88 -16.2,49.17 -29.84,69.88 -13.6,20.68 -30.86,37.28 -51.8,49.86 -20.95,12.55 -46.34,18.84 -76.17,18.84 -29.84,0 -55.36,-6.29 -76.57,-18.84 -21.21,-12.58 -38.6,-29.18 -52.23,-49.86 -13.6,-20.71 -23.55,-44 -29.84,-69.88 -6.26,-25.92 -9.42,-52.23 -9.42,-78.94 0,-26.71 3.16,-53.02 9.42,-78.91 6.29,-25.92 16.24,-49.1 29.84,-69.49 13.63,-20.42 31.02,-36.92 52.23,-49.46 21.21,-12.58 46.73,-18.87 76.57,-18.87 29.84,0 55.23,6.29 76.17,18.87 20.95,12.55 38.2,29.05 51.8,49.46 13.63,20.39 23.58,43.57 29.84,69.49 6.29,25.88 9.45,52.2 9.45,78.91zm285.82 -249.69c0,-16.76 -5.89,-30.89 -17.65,-42.42 -11.79,-11.53 -26.05,-17.26 -42.81,-17.26 -16.73,0 -30.89,5.73 -42.42,17.26 -11.49,11.53 -17.26,25.65 -17.26,42.42l0 497.84c0,11 1.84,20.42 5.5,28.26 3.66,7.87 8.5,14.29 14.52,19.27 6.03,4.97 12.71,8.63 20.02,10.97 7.34,2.37 14.65,3.56 22,3.56l311.74 0c14.65,0 26.97,-4.97 36.88,-14.92 9.98,-9.98 14.95,-22.26 14.95,-36.92 0,-14.13 -4.97,-26.18 -14.95,-36.13 -9.91,-9.95 -22.23,-14.92 -36.88,-14.92l-253.65 0 0 -457zm677.68 0c0,-16.76 -5.89,-30.89 -17.68,-42.42 -11.76,-11.53 -26.05,-17.26 -42.78,-17.26 -16.76,0 -30.89,5.73 -42.42,17.26 -11.49,11.53 -17.26,25.65 -17.26,42.42l0 497.84c0,11 1.84,20.42 5.47,28.26 3.69,7.87 8.53,14.29 14.52,19.27 6.06,4.97 12.71,8.63 20.06,10.97 7.31,2.37 14.65,3.56 22,3.56l311.74 0c14.65,0 26.94,-4.97 36.88,-14.92 9.98,-9.98 14.95,-22.26 14.95,-36.92 0,-14.13 -4.97,-26.18 -14.95,-36.13 -9.95,-9.95 -22.23,-14.92 -36.88,-14.92l-253.65 0 0 -457zm471.13 0c0,-16.76 -5.86,-30.89 -17.65,-42.42 -11.76,-11.53 -26.05,-17.26 -42.78,-17.26 -16.76,0 -30.89,5.73 -42.42,17.26 -11.53,11.53 -17.29,25.65 -17.29,42.42l0 500.18c0,16.76 5.76,30.89 17.29,42.42 11.53,11.53 25.65,17.29 42.42,17.29 16.73,0 31.02,-5.76 42.78,-17.29 11.79,-11.53 17.65,-25.65 17.65,-42.42l0 -500.18zm192.39 291.32l220.65 0c14.69,0 27,-5.1 36.92,-15.31 9.95,-10.21 14.92,-22.39 14.92,-36.52 0,-14.13 -4.97,-26.31 -14.92,-36.52 -9.91,-10.21 -22.23,-15.31 -36.92,-15.31l-220.65 0 0 -144.47 264.65 0c14.13,0 26.18,-4.97 36.13,-14.92 9.95,-9.95 14.92,-22.26 14.92,-36.92 0,-14.13 -4.97,-26.18 -14.92,-36.13 -9.95,-9.95 -22,-14.89 -36.13,-14.89l-322.74 0c-12.58,0 -22.92,2.21 -31.02,6.65 -8.13,4.45 -14.52,9.95 -19.23,16.5 -4.71,6.52 -7.87,13.34 -9.42,20.42 -1.58,7.05 -2.37,12.94 -2.37,17.65l0 498.63c0,16.76 5.76,30.89 17.29,42.42 11.53,11.53 25.65,17.29 42.38,17.29 16.76,0 31.02,-5.76 42.81,-17.29 11.79,-11.53 17.65,-25.65 17.65,-42.42l0 -208.86zm718.52 -10.21c14.65,0 26.97,-5.1 36.92,-15.31 9.95,-10.21 14.92,-22.39 14.92,-36.52 0,-14.13 -4.97,-26.31 -14.92,-36.52 -9.95,-10.21 -22.26,-15.31 -36.92,-15.31l-230.86 0 0 -134.27 274.85 0c14.13,0 26.18,-4.97 36.13,-14.92 9.91,-9.95 14.89,-22.26 14.89,-36.92 0,-14.13 -4.97,-26.18 -14.89,-36.13 -9.95,-9.95 -22,-14.89 -36.13,-14.89l-332.95 0c-12.58,0 -22.92,2.21 -31.02,6.65 -8.13,4.45 -14.52,9.95 -19.23,16.5 -4.74,6.52 -7.87,13.34 -9.42,20.42 -1.61,7.05 -2.37,12.94 -2.37,17.65l0 496.29c0,11 1.84,20.42 5.5,28.26 3.66,7.87 8.5,14.29 14.52,19.27 6.03,4.97 12.71,8.63 20.02,10.97 7.34,2.37 14.65,3.56 22,3.56l332.95 0c14.13,0 26.18,-4.97 36.13,-14.92 9.91,-9.98 14.89,-22.26 14.89,-36.92 0,-14.13 -4.97,-26.18 -14.89,-36.13 -9.95,-9.95 -22,-14.92 -36.13,-14.92l-274.85 0 0 -175.89 230.86 0z"/>
   <path class="fil2" d="M3287.48 912.59c1085.95,0 1966.3,880.35 1966.3,1966.3 0,1085.95 -880.35,1966.3 -1966.3,1966.3 -1085.98,0 -1966.3,-880.35 -1966.3,-1966.3 0,-1085.95 880.32,-1966.3 1966.3,-1966.3z"/>
   <g>
    <path class="fil3" d="M2458.9 2469.57l209.38 509.47 -423.41 0 214.03 -509.47zm432.7 1056.18c15.54,37.25 40.34,66.29 74.46,87.24 34.12,20.95 70.57,31.42 109.34,31.42 55.85,0 103.14,-19.36 141.91,-58.16 38.79,-38.76 58.16,-86.84 58.16,-144.24 0,-27.93 -5.4,-55.06 -16.3,-81.44l-607.18 -1365.58c-35.67,-83.75 -100.05,-125.64 -193.08,-125.64 -89.97,0 -154.32,41.89 -193.08,125.64l-618.87 1365.58c-12.38,27.96 -18.61,55.1 -18.61,81.44 0,37.25 7.01,68.63 20.95,94.22 13.96,25.62 31.02,46.53 51.18,62.84 20.19,16.27 41.89,27.89 65.17,34.88 23.25,6.98 44.2,10.47 62.8,10.47 38.76,0 75.22,-10.47 109.34,-31.42 34.12,-20.95 58.95,-49.99 74.43,-87.24l83.78 -197.73 714.21 0 81.41 197.73zm1270.24 148.92c150.44,0 284.6,-26.77 402.47,-80.29 117.87,-53.48 216.37,-128.34 295.44,-224.47 31.02,-38.79 46.53,-80.68 46.53,-125.67 0,-27.89 -7.38,-55.03 -22.1,-81.41 -14.72,-26.38 -33.36,-50.02 -55.85,-70.97 -22.49,-20.91 -47.65,-37.58 -75.61,-49.99 -27.89,-12.42 -54.27,-18.61 -79.07,-18.61 -24.83,0 -49.23,6.19 -73.31,18.61 -24.01,12.42 -48.44,33.36 -73.27,62.8 -35.67,40.31 -85.66,77.16 -150.04,110.52 -64.35,33.33 -136.08,49.99 -215.18,49.99 -68.24,0 -132.26,-12.78 -191.93,-38.37 -59.71,-25.59 -112.07,-60.89 -157.05,-105.84 -44.95,-44.99 -80.26,-97.35 -105.84,-157.02 -25.59,-59.74 -38.37,-123.69 -38.37,-191.93 0,-68.27 12.78,-132.26 38.37,-191.93 25.59,-59.74 60.89,-112.07 105.84,-157.05 44.99,-44.99 97.35,-80.65 157.05,-107 59.67,-26.38 123.69,-39.55 191.93,-39.55 38.76,0 76.37,4.64 112.79,13.96 36.46,9.29 70.21,21.7 101.23,37.21 31.02,15.51 59.31,32.93 84.9,52.33 25.59,19.4 47.69,39.19 66.29,59.31 46.53,52.76 94.61,79.1 144.24,79.1 17.06,0 38.79,-4.64 65.14,-13.93 26.38,-9.32 52.33,-22.89 77.95,-40.7 25.59,-17.85 47.29,-40.74 65.14,-68.66 17.82,-27.89 26.74,-60.46 26.74,-97.71 0,-43.4 -15.51,-84.54 -46.53,-123.3 -79.07,-96.16 -177.57,-170.99 -295.44,-224.5 -117.87,-53.52 -252.03,-80.26 -402.47,-80.26 -124.09,0 -240.41,23.65 -348.99,70.94 -108.55,47.32 -203.95,111.67 -286.15,193.12 -82.2,81.44 -146.94,177.18 -194.27,287.3 -47.29,110.13 -70.94,227.23 -70.94,351.32 0,124.06 23.65,241.16 70.94,351.26 47.32,110.13 112.07,205.89 194.27,287.34 82.2,81.41 177.6,145.76 286.15,193.08 108.58,47.29 224.9,70.97 348.99,70.97z"/>
    <path class="fil4" d="M6462.63 1776.31c-139.57,0 -261.68,26.35 -366.41,79.07 -104.66,52.72 -191.5,122.94 -260.53,210.57 -69.03,87.6 -120.99,188.8 -155.87,303.57 -34.91,114.77 -52.36,233.43 -52.36,355.93 0,124.09 17.45,243.14 52.36,357.12 34.88,114.01 86.84,214.79 155.87,302.45 69.03,87.63 155.87,157.78 260.53,210.54 104.73,52.72 226.84,79.1 366.41,79.1 116.35,0 217.91,-18.61 304.79,-55.85 86.84,-37.21 159.36,-81.41 217.52,-132.59 58.16,-51.21 101.96,-103.93 131.43,-158.21 29.47,-54.31 44.23,-98.5 44.23,-132.62 0,-24.8 -5.83,-48.08 -17.45,-69.78 -11.66,-21.7 -26.77,-40.31 -45.38,-55.85 -18.61,-15.48 -39.16,-27.89 -61.65,-37.21 -22.49,-9.29 -44.59,-13.96 -66.29,-13.96 -21.74,0 -41.89,5.43 -60.5,16.3 -18.61,10.87 -33.33,27.14 -44.2,48.84 -12.42,26.38 -27.53,55.85 -45.38,88.42 -17.85,32.57 -41.86,63.56 -72.12,93.03 -30.23,29.47 -68.24,54.31 -113.98,74.46 -45.74,20.15 -102.75,30.26 -171.02,30.26 -77.52,0 -146.15,-19.03 -205.86,-57.01 -59.71,-38 -110.13,-87.27 -151.23,-147.74 -41.1,-60.5 -72.12,-129.13 -93.03,-205.89 -20.95,-76.77 -31.42,-154.72 -31.42,-233.82 0,-77.52 10.47,-154.68 31.42,-231.48 20.91,-76.77 51.93,-145.36 93.03,-205.86 41.1,-60.5 91.52,-109.73 151.23,-147.74 59.71,-38 128.34,-57.01 205.86,-57.01 68.27,0 125.28,10.11 171.02,30.23 45.74,20.19 83.75,44.59 113.98,73.31 30.26,28.68 54.27,59.71 72.12,93.03 17.85,33.36 32.97,62.44 45.38,87.27 10.87,21.7 25.59,37.97 44.2,48.84 18.61,10.83 39.55,16.3 62.84,16.3 21.67,0 43.8,-4.64 66.26,-14 22.49,-9.29 43.08,-21.67 61.68,-37.21 18.61,-15.48 33.72,-34.12 45.35,-55.82 11.63,-21.7 17.45,-44.95 17.45,-69.78 0,-32.57 -14.72,-76.01 -44.2,-130.28 -29.47,-54.27 -73.67,-107.03 -132.62,-158.21 -58.95,-51.18 -131.83,-95.77 -218.67,-133.77 -86.88,-38 -188.44,-56.97 -304.79,-56.97zm1035.27 998.02c40.34,0 71.36,-6.19 93.07,-18.61 21.74,-12.42 39.16,-27.93 52.36,-46.53 13.14,-18.61 24.4,-39.16 33.72,-61.65 9.29,-22.49 21.31,-43.04 36.06,-61.65 14.72,-18.61 34.51,-34.12 59.31,-46.53 24.83,-12.38 59.71,-18.61 104.69,-18.61 34.12,0 66.69,3.1 97.71,9.29 31.02,6.22 58.16,15.15 81.41,26.77 23.28,11.63 41.49,26.35 54.67,44.2 13.21,17.82 19.79,38.4 19.79,61.65 0,49.63 -21.31,85.69 -63.99,108.18 -42.65,22.49 -95.77,39.91 -159.33,52.33 -63.63,12.42 -132.26,24.83 -205.89,37.21 -73.7,12.42 -142.3,32.6 -205.93,60.5 -63.56,27.93 -116.68,69.03 -159.33,123.33 -42.68,54.27 -63.99,129.49 -63.99,225.65 0,62.04 13.17,116.32 39.55,162.85 26.35,46.53 60.86,85.69 103.51,117.47 42.68,31.81 90.76,55.46 144.24,70.97 53.52,15.48 106.64,23.25 159.36,23.25 82.2,0 155.87,-10.08 221.01,-30.23 65.17,-20.15 127.19,-58.16 186.13,-113.98 4.64,41.86 22.1,76.37 52.33,103.51 30.23,27.14 66.29,40.7 108.18,40.7 44.99,0 82.96,-15.48 113.98,-46.5 31.02,-31.02 46.57,-69.06 46.57,-114.01l0 -830.52c0,-62.04 -13.6,-115.16 -40.74,-159.39 -27.14,-44.2 -65.14,-81.01 -113.98,-110.49 -48.87,-29.47 -106.64,-51.18 -173.32,-65.14 -66.69,-13.96 -139.6,-20.95 -218.7,-20.95 -83.75,0 -158.97,8.53 -225.65,25.59 -66.69,17.06 -123.3,40.7 -169.8,70.97 -46.57,30.23 -82.23,66.29 -107.03,108.18 -24.83,41.89 -37.25,87.63 -37.25,137.26 0,51.18 13.57,86.45 40.7,105.84 27.17,19.4 59.34,29.08 96.56,29.08zm628.15 218.67l0 225.69c0,31.02 -8.92,58.55 -26.74,82.56 -17.85,24.07 -41.13,44.23 -69.82,60.5 -28.68,16.27 -61.25,28.68 -97.71,37.21 -36.46,8.53 -72.52,12.81 -108.18,12.81 -41.86,0 -77.13,-4.64 -105.84,-13.96 -28.68,-9.29 -51.57,-22.1 -68.63,-38.4 -17.06,-16.27 -29.08,-34.51 -36.06,-54.67 -6.98,-20.15 -10.47,-41.07 -10.47,-62.8 0,-86.88 56.61,-140.36 169.83,-160.51 93.07,-17.06 167.13,-34.15 222.16,-51.21 55.1,-17.03 98.86,-29.44 131.47,-37.21zm1044.55 -367.56c24.8,-9.32 51.18,-16.66 79.1,-22.1 27.93,-5.43 53.88,-12.81 77.95,-22.1 24.01,-9.32 44.2,-22.89 60.46,-40.7 16.3,-17.85 24.44,-44.59 24.44,-80.29 0,-43.4 -11.26,-81.41 -33.76,-113.98 -22.46,-32.57 -64.71,-48.87 -126.76,-48.87 -27.93,0 -55.85,5.83 -83.78,17.45 -27.89,11.63 -54.67,25.59 -80.26,41.89 -25.59,16.27 -48.84,34.48 -69.78,54.67 -20.95,20.15 -38.4,37.97 -52.33,53.52 0,-44.99 -16.3,-84.14 -48.87,-117.5 -32.57,-33.33 -72.12,-50.02 -118.66,-50.02 -46.5,0 -86.45,16.7 -119.78,50.02 -33.36,33.36 -50.06,72.52 -50.06,117.5l0 1011.98c0,44.99 16.7,84.14 50.06,117.47 33.33,33.36 72.48,50.02 117.47,50.02 46.5,0 86.45,-16.3 119.81,-48.84 33.33,-32.57 50.02,-72.12 50.02,-118.66l0 -521.12c0,-26.35 2.31,-55.06 6.95,-86.05 4.68,-31.02 14,-61.68 27.93,-91.91 13.96,-30.26 34.51,-58.92 61.65,-86.09 27.17,-27.14 63.23,-49.23 108.18,-66.29zm1372.59 446.66c38.79,0 68.27,-17.82 88.42,-53.52 20.15,-35.67 30.23,-80.62 30.23,-134.92 0,-57.37 -11.63,-120.2 -34.91,-188.44 -23.25,-68.24 -59.31,-131.83 -108.15,-190.74 -48.87,-58.95 -110.92,-108.22 -186.13,-147.74 -75.22,-39.55 -164.79,-59.34 -268.7,-59.34 -107.03,0 -200.06,18.64 -279.17,55.85 -79.1,37.21 -145.03,87.24 -197.76,150.04 -52.72,62.84 -91.88,135.71 -117.47,218.67 -25.59,82.99 -38.4,171.02 -38.4,264.09 0,93.03 14.36,181.06 43.04,264.02 28.68,82.99 70.57,155.9 125.64,218.7 55.06,62.8 122.9,112.83 203.56,150.04 80.65,37.25 172.14,55.85 274.53,55.85 89.94,0 167.49,-13.57 232.63,-40.74 65.14,-27.14 119.41,-58.95 162.85,-95.37 43.44,-36.46 75.61,-72.91 96.53,-109.34 20.95,-36.46 31.42,-64.78 31.42,-84.93 0,-20.15 -4.64,-39.91 -13.96,-59.31 -9.29,-19.4 -20.91,-36.85 -34.88,-52.33 -13.96,-15.54 -30.23,-27.93 -48.84,-37.25 -18.64,-9.32 -37.25,-13.96 -55.85,-13.96 -29.47,0 -55.82,13.96 -79.1,41.89 -26.38,31.02 -50.02,57.76 -70.97,80.26 -20.91,22.49 -42.25,40.7 -63.95,54.67 -21.74,13.96 -44.99,24.44 -69.78,31.42 -24.83,6.98 -53.52,10.44 -86.09,10.44 -54.31,0 -101.99,-9.29 -143.09,-27.89 -41.1,-18.61 -75.61,-41.86 -103.51,-69.82 -27.93,-27.89 -48.87,-56.97 -62.84,-87.21 -13.93,-30.26 -20.95,-57.01 -20.95,-80.26 0,-18.61 4.28,-33.76 12.81,-45.38 8.53,-11.63 21.34,-17.45 38.4,-17.45l744.44 0zm-479.23 -500.18c51.18,0 95.37,8.53 132.62,25.59 37.21,17.06 67.84,37.61 91.88,61.65 24.04,24.04 41.89,49.23 53.48,75.61 11.66,26.38 17.45,49.63 17.45,69.78 0,29.47 -10.08,44.23 -30.2,44.23l-530.44 0c-23.25,0 -34.91,-15.54 -34.91,-46.57 0,-20.12 6.19,-43.4 18.61,-69.75 12.42,-26.38 30.63,-51.61 54.67,-75.61 24.07,-24.07 55.06,-44.23 93.07,-60.5 38,-16.27 82.59,-24.44 133.77,-24.44zm1719.21 -586.23c0,-49.66 -17.42,-91.52 -52.33,-125.67 -34.91,-34.09 -77.16,-51.18 -126.79,-51.18 -49.66,0 -91.52,17.09 -125.64,51.18 -34.12,34.15 -51.18,76.01 -51.18,125.67l0 1481.9c0,49.66 17.06,91.52 51.18,125.64 34.12,34.12 75.98,51.18 125.64,51.18 49.63,0 91.88,-17.06 126.79,-51.18 34.91,-34.12 52.33,-75.98 52.33,-125.64l0 -1481.9zm1360.97 723.49c0,-62.04 -11.23,-118.26 -33.72,-168.65 -22.49,-50.45 -53.52,-93.46 -93.07,-129.13 -39.52,-35.67 -85.69,-63.59 -138.42,-83.75 -52.72,-20.15 -108.58,-30.26 -167.49,-30.26 -52.76,0 -100.05,5.83 -141.94,17.45 -41.86,11.63 -79.1,25.59 -111.64,41.89 -32.57,16.27 -60.5,34.48 -83.78,54.67 -23.25,20.15 -41.86,37.97 -55.82,53.52 0,-44.99 -16.27,-84.14 -48.84,-117.5 -32.57,-33.33 -72.12,-50.02 -118.66,-50.02 -46.53,0 -86.48,16.7 -119.81,50.02 -33.36,33.36 -50.02,72.52 -50.02,117.5l0 1011.98c0,44.99 16.66,84.14 50.02,117.47 33.33,33.36 73.27,50.02 119.81,50.02 46.53,0 86.09,-16.66 118.66,-50.02 32.57,-33.33 48.84,-72.48 48.84,-117.47l0 -656.05c0,-34.12 6.59,-65.93 19.76,-95.41 13.21,-29.44 30.66,-55.03 52.36,-76.77 21.74,-21.7 47.69,-39.16 77.92,-52.33 30.26,-13.21 61.65,-19.79 94.25,-19.79 34.12,0 65.9,6.59 95.37,19.79 29.47,13.17 55.06,30.63 76.77,52.33 21.7,21.74 39.16,47.32 52.36,76.77 13.17,29.47 19.76,61.29 19.76,95.41l0 656.05c0,44.99 16.66,84.14 50.02,117.47 33.33,33.36 73.27,50.02 119.81,50.02 46.53,0 86.09,-16.66 118.66,-50.02 32.57,-33.33 48.84,-72.48 48.84,-117.47l0 -767.72zm1035.27 767.72c0,44.99 16.27,84.14 48.84,117.47 32.57,33.36 72.16,50.02 118.66,50.02 46.53,0 86.45,-16.66 119.81,-50.02 33.33,-33.33 50.02,-72.48 50.02,-117.47l0 -1500.57c0,-46.5 -16.7,-86.05 -50.02,-118.62 -33.36,-32.57 -73.27,-48.87 -119.81,-48.87 -46.5,0 -86.09,16.3 -118.66,48.87 -32.57,32.57 -48.84,72.12 -48.84,118.62l0 456.02c0,20.15 -3.89,30.23 -11.63,30.23 -9.32,0 -23.28,-8.53 -41.89,-25.59 -18.61,-17.06 -43.4,-36.06 -74.43,-57.01 -31.02,-20.95 -68.24,-39.95 -111.67,-57.01 -43.44,-17.06 -93.82,-25.59 -151.23,-25.59 -77.56,0 -147.34,16.3 -209.38,48.87 -62.04,32.57 -115.16,78.71 -159.36,138.42 -44.2,59.71 -78.31,131.07 -102.35,214.03 -24.04,82.99 -36.06,174.08 -36.06,273.34 0,99.29 12.02,190.02 36.06,272.19 24.04,82.23 58.16,153.2 102.35,212.88 44.2,59.71 97.32,105.88 159.36,138.45 62.04,32.54 131.83,48.84 209.38,48.84 66.69,0 122.11,-5.8 166.34,-17.45 44.2,-11.63 80.65,-25.98 109.34,-43.04 28.68,-17.03 51.57,-35.27 68.63,-54.67 17.06,-19.36 32.57,-36.82 46.53,-52.33zm-281.51 -904.98c97.71,0 174.08,35.67 229.18,107.03 55.03,71.33 82.56,169.04 82.56,293.1 0,122.54 -27.53,219.49 -82.56,290.83 -55.1,71.33 -131.47,107.03 -229.18,107.03 -97.71,0 -174.11,-35.7 -229.14,-107.03 -55.06,-71.33 -82.59,-168.28 -82.59,-290.83 0,-124.06 27.53,-221.77 82.59,-293.1 55.03,-71.36 131.43,-107.03 229.14,-107.03zm800.29 -595.58c0,46.57 16.66,86.12 50.02,118.66 33.33,32.57 72.48,48.87 117.47,48.87 46.53,0 86.48,-16.3 119.81,-48.87 33.36,-32.54 50.02,-72.09 50.02,-118.66 0,-46.5 -16.66,-86.05 -50.02,-118.62 -33.33,-32.57 -73.27,-48.87 -119.81,-48.87 -44.99,0 -84.14,16.3 -117.47,48.87 -33.36,32.57 -50.02,72.12 -50.02,118.62zm337.33 521.12c0,-46.5 -16.66,-86.45 -50.02,-119.81 -33.33,-33.33 -73.27,-49.99 -119.81,-49.99 -44.99,0 -84.14,16.66 -117.47,49.99 -33.36,33.36 -50.02,73.31 -50.02,119.81l0 979.44c0,44.99 16.27,84.14 48.87,117.47 32.57,33.36 72.12,50.02 118.62,50.02 46.53,0 86.48,-16.3 119.81,-48.84 33.36,-32.57 50.02,-72.12 50.02,-118.66l0 -979.44zm346.65 276.86c40.31,0 71.33,-6.19 93.07,-18.61 21.7,-12.42 39.16,-27.93 52.33,-46.53 13.17,-18.61 24.44,-39.16 33.72,-61.65 9.32,-22.49 21.34,-43.04 36.06,-61.65 14.72,-18.61 34.51,-34.12 59.31,-46.53 24.83,-12.38 59.74,-18.61 104.73,-18.61 34.12,0 66.69,3.1 97.71,9.29 31.02,6.22 58.16,15.15 81.41,26.77 23.25,11.63 41.49,26.35 54.67,44.2 13.17,17.82 19.79,38.4 19.79,61.65 0,49.63 -21.34,85.69 -63.99,108.18 -42.65,22.49 -95.77,39.91 -159.36,52.33 -63.59,12.42 -132.22,24.83 -205.89,37.21 -73.67,12.42 -142.3,32.6 -205.89,60.5 -63.59,27.93 -116.71,69.03 -159.36,123.33 -42.65,54.27 -63.99,129.49 -63.99,225.65 0,62.04 13.21,116.32 39.55,162.85 26.38,46.53 60.89,85.69 103.54,117.47 42.65,31.81 90.73,55.46 144.24,70.97 53.52,15.48 106.64,23.25 159.36,23.25 82.2,0 155.87,-10.08 221.01,-30.23 65.14,-20.15 127.15,-58.16 186.13,-113.98 4.64,41.86 22.1,76.37 52.33,103.51 30.23,27.14 66.29,40.7 108.18,40.7 44.99,0 82.96,-15.48 113.98,-46.5 31.02,-31.02 46.53,-69.06 46.53,-114.01l0 -830.52c0,-62.04 -13.57,-115.16 -40.74,-159.39 -27.14,-44.2 -65.11,-81.01 -113.98,-110.49 -48.84,-29.47 -106.64,-51.18 -173.32,-65.14 -66.69,-13.96 -139.57,-20.95 -218.67,-20.95 -83.75,0 -159,8.53 -225.65,25.59 -66.69,17.06 -123.3,40.7 -169.83,70.97 -46.53,30.23 -82.2,66.29 -107,108.18 -24.83,41.89 -37.25,87.63 -37.25,137.26 0,51.18 13.57,86.45 40.7,105.84 27.14,19.4 59.34,29.08 96.56,29.08zm628.15 218.67l0 225.69c0,31.02 -8.92,58.55 -26.77,82.56 -17.82,24.07 -41.1,44.23 -69.78,60.5 -28.68,16.27 -61.29,28.68 -97.71,37.21 -36.46,8.53 -72.52,12.81 -108.18,12.81 -41.86,0 -77.16,-4.64 -105.88,-13.96 -28.68,-9.29 -51.54,-22.1 -68.6,-38.4 -17.06,-16.27 -29.11,-34.51 -36.06,-54.67 -6.98,-20.15 -10.47,-41.07 -10.47,-62.8 0,-86.88 56.61,-140.36 169.8,-160.51 93.07,-17.06 167.13,-34.15 222.2,-51.21 55.06,-17.03 98.86,-29.44 131.47,-37.21z"/>
   </g>
  </g>
 </g>
</svg>
